<svg width="80" height="80" viewBox="0 0 80 80" fill="none" xmlns="http://www.w3.org/2000/svg">
<rect width="80" height="80" rx="12" fill="#D9D9D9"/>
<path d="M39.5 15.5C26.2601 15.5 15.5 26.2601 15.5 39.5C15.5 52.7399 26.2601 63.5 39.5 63.5C52.7399 63.5 63.5 52.7399 63.5 39.5C63.5 26.2601 52.7399 15.5 39.5 15.5ZM39.5 57.3352C29.6531 57.3352 21.6648 49.347 21.6648 39.5C21.6648 29.653 29.653 21.6648 39.5 21.6648C49.347 21.6648 57.3352 29.653 57.3352 39.5C57.3352 49.347 49.347 57.3352 39.5 57.3352Z" fill="#29539B" stroke="#29539B"/>
<path d="M36.4179 25.0385V36.4176H30.7202H30.2202V36.9176V42.0824V42.5824H30.7202H39.5003H39.7075L39.8539 42.436L42.4363 39.8535L42.5828 39.7071V39.5V25.0385V24.5385H42.0828H36.9179H36.4179V25.0385Z" fill="#29539B" stroke="#29539B"/>
</svg>
