<svg width="80" height="80" viewBox="0 0 80 80" fill="none" xmlns="http://www.w3.org/2000/svg">
<rect width="80" height="80" rx="12" fill="#D9D9D9"/>
<path d="M49.5954 49.5956C46.9122 52.2788 43.3399 53.757 39.5346 53.757C35.7295 53.757 32.1554 52.2788 29.4722 49.5956C23.9229 44.0475 23.9229 35.0191 29.4722 29.4709C32.1554 26.7877 35.7292 25.3095 39.5346 25.3095C43.1311 25.3095 46.5203 26.6287 49.1447 29.0396L44.6108 33.5766L62 36.162L59.4146 18.7728L55.0294 23.158C50.8319 19.1815 45.3534 17 39.5347 17C33.506 17 27.8434 19.3421 23.5925 23.5937C14.8025 32.3837 14.8025 46.6841 23.5925 55.4765C27.8437 59.7246 33.506 62.0682 39.5347 62.0682C45.5634 62.0682 51.2243 59.7246 55.4753 55.4746L55.9154 55.0329L50.0354 49.1529L49.5954 49.5956Z" fill="#29539B"/>
<path d="M44.1919 39.7546C44.1919 42.4494 42.0073 44.634 39.3125 44.634C36.6177 44.634 34.4331 42.4494 34.4331 39.7546C34.4331 37.0599 36.6177 34.8752 39.3125 34.8752C42.0073 34.8752 44.1919 37.0599 44.1919 39.7546Z" fill="#29539B"/>
</svg>
