<svg width="45" height="52" viewBox="0 0 45 52" fill="none" xmlns="http://www.w3.org/2000/svg">
<path d="M0.500001 19.9378L0.499999 19.9366L0.500015 16.6255L0.500017 16.1255H1.00001H7.14297H7.64297V16.6255V19.9374C7.64545 23.3737 9.4402 26.5465 12.3509 28.2735L12.351 28.2736L20.4644 33.0911V22.7413L16.5518 20.4721L16.5513 20.4718C14.007 18.9923 11.8927 16.8554 10.4232 14.2781C8.95298 11.7014 8.17909 8.77548 8.17854 5.79699V5.7969V2.56247V2.06247H8.67854H14.8215H15.3215V2.56247V5.7966C15.3225 7.49998 15.7655 9.17202 16.6055 10.644C17.4454 12.1153 18.652 13.3342 20.1022 14.1773L20.1025 14.1775L20.4644 14.3882V1V0.5H20.9644H27.1074H27.6074V1V26.2532L32.4817 23.5022L0.500001 19.9378ZM0.500001 19.9378C0.51434 25.9407 3.64795 31.4922 8.745 34.5306L8.74579 34.5311M0.500001 19.9378L8.74579 34.5311M8.74579 34.5311L20.4644 41.4877V51V51.5M8.74579 34.5311L20.4644 51.5M20.4644 51.5H20.9644M20.4644 51.5H20.9644M20.9644 51.5H27.1074H27.6074M20.9644 51.5H27.6074M27.6074 51.5V51M27.6074 51.5V51M27.6074 51V34.5574L35.9532 29.8415L35.9532 29.8414M27.6074 51L35.9532 29.8414M35.9532 29.8414C38.5452 28.3763 40.7042 26.2326 42.2064 23.634C43.7091 21.0355 44.5005 18.076 44.5 15.0626C44.5 15.0626 44.5 15.0625 44.5 15.0625V11.9373V11.4373M35.9532 29.8414L44.5 11.4373M44.5 11.4373H44M44.5 11.4373H44M44 11.4373H37.857H37.357M44 11.4373H37.357M37.357 11.4373V11.9373M37.357 11.4373V11.9373M37.357 11.9373V15.0626C37.357 16.785 36.9044 18.4763 36.0466 19.96L36.0465 19.9602M37.357 11.9373L36.0465 19.9602M36.0465 19.9602C35.1894 21.4437 33.9582 22.666 32.4823 23.5019L36.0465 19.9602Z" fill="#29539B" stroke="#29539B"/>
</svg>
