<svg width="46" height="46" viewBox="0 0 46 46" fill="none" xmlns="http://www.w3.org/2000/svg">
<path d="M19.1872 0.999986L19.1819 1.00001C9.17199 1.053 1 9.17532 1 19.2081C1 29.238 9.17032 37.3663 19.1373 37.3663C22.8641 37.3663 26.5355 36.1816 29.6496 33.9912L39.3533 43.7067L40.0608 44.4151L40.7684 43.7067L43.7075 40.7639L44.4151 40.0555L43.7058 39.3489L34.012 29.6901C36.1996 26.6464 37.3743 22.9669 37.3743 19.1582C37.3743 9.12636 29.2021 1 19.1872 0.999986ZM19.1373 31.2762C12.5168 31.2762 7.13479 25.8893 7.13479 19.2579C7.13479 12.6265 12.5169 7.23967 19.1373 7.23967C25.7576 7.23967 31.1397 12.6266 31.1397 19.2579C31.1397 25.8894 25.7576 31.2762 19.1373 31.2762Z" fill="#29539B" stroke="#29539B" stroke-width="2"/>
</svg>
