<svg width="60" height="43" viewBox="0 0 60 43" fill="none" xmlns="http://www.w3.org/2000/svg">
<path d="M57.1196 28.8514L57.1195 28.8514C55.6405 29.7772 53.7819 29.9078 52.1833 29.1995C50.7086 28.5462 49.6353 27.2585 49.277 25.7248L34.1645 24.527C33.7126 26.0407 32.7901 27.383 31.5216 28.3668C30.1843 29.404 28.5378 29.9844 26.8347 30.0241L26.2937 32.9756C27.6724 33.6789 28.665 34.9576 28.9721 36.4677C29.3061 38.1104 28.7833 39.8044 27.5826 40.9938C26.3832 42.1823 24.6616 42.714 22.9837 42.4209C21.3052 42.1281 19.8773 41.0455 19.1747 39.5208L19.1747 39.5207C18.4714 37.9944 18.5891 36.2281 19.4872 34.8042L19.4873 34.8042C20.3142 33.4934 21.7009 32.6315 23.2452 32.4407L23.786 29.489C21.824 28.7294 20.2546 27.2286 19.4401 25.3242L10.8205 26.9617C10.6441 28.4764 9.77335 29.8377 8.44638 30.6574L8.18359 30.2321L8.44638 30.6574C7.00374 31.5486 5.20402 31.688 3.63618 31.0318C2.06704 30.3752 0.926171 29.0036 0.596368 27.3607L0.596335 27.3605C0.266903 25.7166 0.793785 24.0235 1.99831 22.8368L57.1196 28.8514ZM57.1196 28.8514C58.5107 27.9803 59.3896 26.5144 59.4901 24.9101L59.4995 24.9052L59.5 24.6018C59.5028 22.9734 58.702 21.4478 57.3549 20.4984C56.0088 19.5498 54.2789 19.2895 52.704 19.7959C51.2574 20.2607 50.0973 21.3225 49.5271 22.6933L34.4164 21.4956C34.3119 20.6437 34.0595 19.8155 33.6701 19.0465L41.3332 13.2839C42.6156 14.1574 44.2406 14.4221 45.7526 13.991C47.3919 13.5237 48.6953 12.296 49.2266 10.7031C49.7582 9.1092 49.445 7.36346 48.3947 6.04122L48.3946 6.04112C47.3448 4.72015 45.697 3.99335 43.993 4.0918C42.289 4.19022 40.7395 5.10133 39.8568 6.53558C39.0456 7.85324 38.8966 9.45276 39.4352 10.8822L31.7712 16.6447C30.7997 15.8219 29.6328 15.2454 28.3744 14.969C27.1161 14.6921 25.809 14.7246 24.5701 15.0606M57.1196 28.8514L24.5701 15.0606M24.5701 15.0606L21.5017 9.1744C22.6161 8.10959 23.1882 6.60144 23.0343 5.0669C22.8668 3.39674 21.8624 1.92147 20.3609 1.12052C18.8603 0.319654 17.0515 0.292723 15.5267 1.0472L15.5266 1.04722C14.0006 1.80254 12.95 3.2466 12.7296 4.91069L24.5701 15.0606ZM18.8411 22.3409C18.8625 20.0274 19.9605 17.8591 21.807 16.4362L18.7396 10.5482C17.1993 10.8031 15.612 10.3672 14.4308 9.34415C13.1487 8.23459 12.5088 6.57541 12.7296 4.91082L18.8411 22.3409ZM18.8411 22.3409L10.2253 23.978C9.47886 22.6376 8.14747 21.6947 6.60207 21.4209C4.92449 21.1234 3.20128 21.6513 1.99838 22.8368L18.8411 22.3409Z" fill="#29539B" stroke="#29539B"/>
</svg>
