<svg width="50" height="49" viewBox="0 0 50 49" fill="none" xmlns="http://www.w3.org/2000/svg">
<path d="M21.5143 0L19.7714 5.94847C18.1927 6.3748 16.6868 6.99756 15.2944 7.77406L9.79556 4.77045L4.8678 9.59965L7.93271 14.9885C7.14033 16.3535 6.50452 17.8288 6.06987 19.376L0 21.0841V27.9159L6.06987 29.624C6.5049 31.1712 7.14037 32.6469 7.93271 34.0115L4.8678 39.4003L9.79556 44.2296L15.2944 41.2259C16.6872 42.0025 18.1927 42.6256 19.7714 43.0515L21.5143 49H28.4857L30.2286 43.0515C31.8073 42.6252 33.3132 42.0024 34.7056 41.2259L40.2044 44.2296L45.1322 39.4003L42.0673 34.0115C42.8597 32.6465 43.4955 31.1712 43.9301 29.624L50 27.9159V21.0841L43.9301 19.376C43.4951 17.8288 42.8596 16.3531 42.0673 14.9885L45.1322 9.59965L40.2044 4.77045L34.7056 7.77406C33.3128 6.99752 31.8073 6.37443 30.2286 5.94847L28.4857 0H21.5143ZM24.9998 13.1927C31.338 13.1927 36.5383 18.2889 36.5383 24.5004C36.5383 30.7119 31.338 35.8081 24.9998 35.8081C18.6616 35.8081 13.4613 30.7119 13.4613 24.5004C13.4613 18.2889 18.6616 13.1927 24.9998 13.1927ZM24.9998 18.8465C21.7795 18.8465 19.2306 21.3445 19.2306 24.5004C19.2306 27.6563 21.7795 30.1543 24.9998 30.1543C28.2201 30.1543 30.769 27.6563 30.769 24.5004C30.769 21.3445 28.2201 18.8465 24.9998 18.8465Z" fill="#29539B"/>
</svg>
